STARTFONT 2.1
FONT -Adobe-Times-Medium-I-Normal--14-140-75-75-P-73-windows-1251
SIZE 14 75 75
FONTBOUNDINGBOX 17 18 -3 -4
COMMENT $XConsortium: timI14.bdf,v 1.14 95/01/26 18:06:52 gildea Exp $
COMMENT 
COMMENT +
COMMENT  Copyright 1984-1989, 1994 Adobe Systems Incorporated.
COMMENT  Copyright 1988, 1994 Digital Equipment Corporation.
COMMENT
COMMENT  Adobe is a trademark of Adobe Systems Incorporated which may be
COMMENT  registered in certain jurisdictions.
COMMENT  Permission to use these trademarks is hereby granted only in
COMMENT  association with the images described in this file.
COMMENT
COMMENT  Permission to use, copy, modify, distribute and sell this software
COMMENT  and its documentation for any purpose and without fee is hereby
COMMENT  granted, provided that the above copyright notices appear in all
COMMENT  copies and that both those copyright notices and this permission
COMMENT  notice appear in supporting documentation, and that the names of
COMMENT  Adobe Systems and Digital Equipment Corporation not be used in
COMMENT  advertising or publicity pertaining to distribution of the software
COMMENT  without specific, written prior permission.  Adobe Systems and
COMMENT  Digital Equipment Corporation make no representations about the
COMMENT  suitability of this software for any purpose.  It is provided "as
COMMENT  is" without express or implied warranty.
COMMENT -
STARTPROPERTIES 32
FOUNDRY "Adobe"
FAMILY_NAME "Times"
WEIGHT_NAME "Medium"
SLANT "I"
SETWIDTH_NAME "Normal"
ADD_STYLE_NAME ""
PIXEL_SIZE 14
POINT_SIZE 140
RESOLUTION_X 75
RESOLUTION_Y 75
SPACING "P"
AVERAGE_WIDTH 73
CHARSET_REGISTRY "windows"
CHARSET_ENCODING "1251"
CAP_HEIGHT 10
X_HEIGHT 7
FONT_ASCENT 12
FONT_DESCENT 3
FACE_NAME "Times Italic"
COPYRIGHT "Copyright (c) 1984, 1987 Adobe Systems Incorporated. All Rights Reserved. Copyright (c) 1988, 1991 Digital Equipment Corporation. All Rights Reserved."
NOTICE "Times is a trademark of Linotype-Hell AG and/or its subsidiaries."

STARTCHAR space
ENCODING 32
SWIDTH 250 0
DWIDTH 3 0
BBX 0 0 0 0
BITMAP
ENDCHAR
STARTCHAR exclam
ENCODING 33
SWIDTH 333 0
DWIDTH 5 0
BBX 4 10 1 0
BITMAP
10
10
10
20
20
20
40
40
00
80
ENDCHAR
STARTCHAR quotedbl
ENCODING 34
SWIDTH 420 0
DWIDTH 6 0
BBX 7 4 0 6
BITMAP
36
6C
48
90
ENDCHAR
STARTCHAR numbersign
ENCODING 35
SWIDTH 500 0
DWIDTH 7 0
BBX 7 10 0 0
BITMAP
14
14
14
7E
28
28
FC
50
50
50
ENDCHAR
STARTCHAR dollar
ENCODING 36
SWIDTH 500 0
DWIDTH 7 0
BBX 7 12 0 -1
BITMAP
04
1C
2A
2A
28
18
14
14
A4
A8
78
20
ENDCHAR
STARTCHAR percent
ENCODING 37
SWIDTH 833 0
DWIDTH 12 0
BBX 11 10 0 0
BITMAP
3880
4F80
8900
9200
6400
04C0
0920
1220
1240
2180
ENDCHAR
STARTCHAR ampersand
ENCODING 38
SWIDTH 778 0
DWIDTH 11 0
BBX 9 10 0 0
BITMAP
0C00
1200
1200
1C00
3980
4900
8A00
8400
8E80
7300
ENDCHAR
STARTCHAR quotesingle
ENCODING 39
SWIDTH 214 0
DWIDTH 3 0
BBX 4 4 0 6
BITMAP
30
60
40
80
ENDCHAR
STARTCHAR parenleft
ENCODING 40
SWIDTH 333 0
DWIDTH 5 0
BBX 4 13 0 -3
BITMAP
10
20
20
40
40
40
80
80
80
80
80
80
40
ENDCHAR
STARTCHAR parenright
ENCODING 41
SWIDTH 333 0
DWIDTH 5 0
BBX 4 13 0 -3
BITMAP
20
10
10
10
10
10
10
20
20
20
40
40
80
ENDCHAR
STARTCHAR asterisk
ENCODING 42
SWIDTH 500 0
DWIDTH 7 0
BBX 5 5 1 5
BITMAP
20
A8
70
A8
20
ENDCHAR
STARTCHAR plus
ENCODING 43
SWIDTH 675 0
DWIDTH 10 0
BBX 7 7 1 0
BITMAP
10
10
10
FE
10
10
10
ENDCHAR
STARTCHAR comma
ENCODING 44
SWIDTH 250 0
DWIDTH 4 0
BBX 2 3 0 -1
BITMAP
C0
40
80
ENDCHAR
STARTCHAR minus
ENCODING 45
SWIDTH 675 0
DWIDTH 9 0
BBX 6 1 1 3
BITMAP
FC
ENDCHAR
STARTCHAR period
ENCODING 46
SWIDTH 250 0
DWIDTH 3 0
BBX 1 2 0 0
BITMAP
80
80
ENDCHAR
STARTCHAR slash
ENCODING 47
SWIDTH 278 0
DWIDTH 4 0
BBX 5 10 -1 0
BITMAP
08
08
10
10
20
20
40
40
80
80
ENDCHAR
STARTCHAR zero
ENCODING 48
SWIDTH 500 0
DWIDTH 7 0
BBX 6 10 0 0
BITMAP
18
24
44
44
84
84
88
88
90
60
ENDCHAR
STARTCHAR one
ENCODING 49
SWIDTH 500 0
DWIDTH 7 0
BBX 4 10 1 0
BITMAP
30
10
10
20
20
20
40
40
40
E0
ENDCHAR
STARTCHAR two
ENCODING 50
SWIDTH 500 0
DWIDTH 7 0
BBX 6 10 0 0
BITMAP
38
44
04
04
08
10
20
40
88
F8
ENDCHAR
STARTCHAR three
ENCODING 51
SWIDTH 500 0
DWIDTH 7 0
BBX 6 10 0 0
BITMAP
18
24
04
08
30
08
08
08
90
60
ENDCHAR
STARTCHAR four
ENCODING 52
SWIDTH 500 0
DWIDTH 7 0
BBX 6 10 0 0
BITMAP
04
0C
14
28
48
90
FC
10
20
20
ENDCHAR
STARTCHAR five
ENCODING 53
SWIDTH 500 0
DWIDTH 7 0
BBX 6 10 0 0
BITMAP
3C
40
40
70
18
08
08
08
90
E0
ENDCHAR
STARTCHAR six
ENCODING 54
SWIDTH 500 0
DWIDTH 7 0
BBX 6 10 0 0
BITMAP
0C
30
40
40
F0
88
88
88
D0
60
ENDCHAR
STARTCHAR seven
ENCODING 55
SWIDTH 500 0
DWIDTH 7 0
BBX 6 10 1 0
BITMAP
7C
84
08
08
10
20
20
40
80
80
ENDCHAR
STARTCHAR eight
ENCODING 56
SWIDTH 500 0
DWIDTH 7 0
BBX 6 10 0 0
BITMAP
18
24
44
28
30
50
88
88
90
60
ENDCHAR
STARTCHAR nine
ENCODING 57
SWIDTH 500 0
DWIDTH 7 0
BBX 6 10 0 0
BITMAP
18
2C
44
44
4C
34
08
08
30
C0
ENDCHAR
STARTCHAR colon
ENCODING 58
SWIDTH 333 0
DWIDTH 4 0
BBX 2 7 1 0
BITMAP
40
40
00
00
00
80
80
ENDCHAR
STARTCHAR semicolon
ENCODING 59
SWIDTH 333 0
DWIDTH 4 0
BBX 3 8 0 -1
BITMAP
20
20
00
00
00
C0
40
80
ENDCHAR
STARTCHAR less
ENCODING 60
SWIDTH 675 0
DWIDTH 10 0
BBX 7 7 1 0
BITMAP
06
18
20
C0
20
18
06
ENDCHAR
STARTCHAR equal
ENCODING 61
SWIDTH 675 0
DWIDTH 10 0
BBX 7 3 1 2
BITMAP
FE
00
FE
ENDCHAR
STARTCHAR greater
ENCODING 62
SWIDTH 675 0
DWIDTH 10 0
BBX 7 7 2 0
BITMAP
C0
30
08
06
08
30
C0
ENDCHAR
STARTCHAR question
ENCODING 63
SWIDTH 500 0
DWIDTH 7 0
BBX 4 10 2 0
BITMAP
60
90
90
10
20
40
80
80
00
80
ENDCHAR
STARTCHAR at
ENCODING 64
SWIDTH 920 0
DWIDTH 13 0
BBX 12 13 0 -3
BITMAP
0780
1860
2020
4390
4C90
8890
9110
9310
9520
48C0
4000
3040
0F80
ENDCHAR
STARTCHAR A
ENCODING 65
SWIDTH 611 0
DWIDTH 9 0
BBX 9 10 -1 0
BITMAP
0100
0300
0500
0900
0900
1100
3F00
2100
4100
E380
ENDCHAR
STARTCHAR B
ENCODING 66
SWIDTH 611 0
DWIDTH 8 0
BBX 9 10 -1 0
BITMAP
3F00
1080
1080
2100
3E00
2300
4100
4100
4200
FC00
ENDCHAR
STARTCHAR C
ENCODING 67
SWIDTH 667 0
DWIDTH 9 0
BBX 9 10 1 0
BITMAP
1E80
3100
4100
4000
8000
8000
8000
8000
C400
7800
ENDCHAR
STARTCHAR D
ENCODING 68
SWIDTH 722 0
DWIDTH 10 0
BBX 9 10 0 0
BITMAP
3F00
1180
1080
2080
2080
2080
4100
4100
4600
F800
ENDCHAR
STARTCHAR E
ENCODING 69
SWIDTH 611 0
DWIDTH 9 0
BBX 9 10 0 0
BITMAP
3F80
1080
1000
2200
3E00
2400
4000
4000
4100
FE00
ENDCHAR
STARTCHAR F
ENCODING 70
SWIDTH 611 0
DWIDTH 9 0
BBX 9 10 0 0
BITMAP
3F80
1080
1000
2200
3E00
2400
4000
4000
4000
E000
ENDCHAR
STARTCHAR G
ENCODING 71
SWIDTH 722 0
DWIDTH 10 0
BBX 9 10 1 0
BITMAP
1E80
3100
4100
4000
8000
8700
8200
8200
C400
7800
ENDCHAR
STARTCHAR H
ENCODING 72
SWIDTH 722 0
DWIDTH 10 0
BBX 10 10 0 0
BITMAP
39C0
1080
1080
2100
3F00
2100
4200
4200
4200
E700
ENDCHAR
STARTCHAR I
ENCODING 73
SWIDTH 333 0
DWIDTH 5 0
BBX 5 10 0 0
BITMAP
38
10
10
20
20
20
40
40
40
E0
ENDCHAR
STARTCHAR J
ENCODING 74
SWIDTH 444 0
DWIDTH 6 0
BBX 6 10 0 0
BITMAP
1C
08
08
10
10
10
20
20
A0
C0
ENDCHAR
STARTCHAR K
ENCODING 75
SWIDTH 667 0
DWIDTH 10 0
BBX 10 10 0 0
BITMAP
39C0
1100
1200
2400
3800
2800
4400
4200
4100
E380
ENDCHAR
STARTCHAR L
ENCODING 76
SWIDTH 556 0
DWIDTH 8 0
BBX 7 10 0 0
BITMAP
38
10
10
20
20
20
40
40
42
FC
ENDCHAR
STARTCHAR M
ENCODING 77
SWIDTH 833 0
DWIDTH 12 0
BBX 12 10 0 0
BITMAP
3070
1060
18A0
2940
2940
2A40
4A80
4C80
4880
E9C0
ENDCHAR
STARTCHAR N
ENCODING 78
SWIDTH 667 0
DWIDTH 11 0
BBX 11 10 0 0
BITMAP
30E0
1040
1040
2880
2880
2480
4500
4500
4300
E100
ENDCHAR
STARTCHAR O
ENCODING 79
SWIDTH 722 0
DWIDTH 10 0
BBX 9 10 0 0
BITMAP
0E00
3100
6080
4080
C080
8180
8100
8300
4600
3800
ENDCHAR
STARTCHAR P
ENCODING 80
SWIDTH 611 0
DWIDTH 9 0
BBX 9 10 0 0
BITMAP
3F00
1080
1080
2100
3E00
2000
4000
4000
4000
E000
ENDCHAR
STARTCHAR Q
ENCODING 81
SWIDTH 722 0
DWIDTH 10 0
BBX 9 13 0 -3
BITMAP
0E00
3100
6080
4080
C080
8180
8100
8300
4600
3800
2000
4100
FE00
ENDCHAR
STARTCHAR R
ENCODING 82
SWIDTH 611 0
DWIDTH 9 0
BBX 9 10 0 0
BITMAP
3F00
1080
1080
2100
3E00
2800
4400
4400
4200
E300
ENDCHAR
STARTCHAR S
ENCODING 83
SWIDTH 500 0
DWIDTH 7 0
BBX 7 10 0 0
BITMAP
1A
26
22
20
10
08
04
84
C4
B8
ENDCHAR
STARTCHAR T
ENCODING 84
SWIDTH 556 0
DWIDTH 8 0
BBX 7 10 1 0
BITMAP
FE
92
10
20
20
20
40
40
40
E0
ENDCHAR
STARTCHAR U
ENCODING 85
SWIDTH 722 0
DWIDTH 10 0
BBX 10 10 1 0
BITMAP
79C0
2080
2100
4100
4100
4200
8200
8200
8400
7800
ENDCHAR
STARTCHAR V
ENCODING 86
SWIDTH 611 0
DWIDTH 9 0
BBX 9 10 1 0
BITMAP
E380
4100
4200
4200
4400
4800
4800
5000
6000
4000
ENDCHAR
STARTCHAR W
ENCODING 87
SWIDTH 833 0
DWIDTH 11 0
BBX 12 10 0 0
BITMAP
EE70
4420
4440
4440
4440
2A80
2A80
3300
3300
2200
ENDCHAR
STARTCHAR X
ENCODING 88
SWIDTH 611 0
DWIDTH 9 0
BBX 9 10 0 0
BITMAP
7380
2100
1200
1400
0800
0800
1400
2400
4200
E700
ENDCHAR
STARTCHAR Y
ENCODING 89
SWIDTH 556 0
DWIDTH 8 0
BBX 9 10 0 0
BITMAP
E380
4100
2200
1400
1800
1000
1000
2000
2000
7000
ENDCHAR
STARTCHAR Z
ENCODING 90
SWIDTH 556 0
DWIDTH 8 0
BBX 8 10 0 0
BITMAP
7F
41
02
04
08
10
20
40
82
FE
ENDCHAR
STARTCHAR bracketleft
ENCODING 91
SWIDTH 389 0
DWIDTH 6 0
BBX 6 13 0 -3
BITMAP
1C
10
10
20
20
20
40
40
40
80
80
80
E0
ENDCHAR
STARTCHAR backslash
ENCODING 92
SWIDTH 278 0
DWIDTH 4 0
BBX 4 10 0 0
BITMAP
80
80
80
40
40
20
20
10
10
10
ENDCHAR
STARTCHAR bracketright
ENCODING 93
SWIDTH 389 0
DWIDTH 6 0
BBX 6 13 -1 -3
BITMAP
1C
04
04
08
08
08
10
10
10
20
20
20
E0
ENDCHAR
STARTCHAR asciicircum
ENCODING 94
SWIDTH 422 0
DWIDTH 6 0
BBX 5 5 1 5
BITMAP
20
70
50
88
88
ENDCHAR
STARTCHAR underscore
ENCODING 95
SWIDTH 500 0
DWIDTH 7 0
BBX 8 1 -2 -4
BITMAP
FF
ENDCHAR
STARTCHAR grave
ENCODING 96
SWIDTH 333 0
DWIDTH 5 0
BBX 3 3 1 8
BITMAP
80
C0
20
ENDCHAR
STARTCHAR a
ENCODING 97
SWIDTH 500 0
DWIDTH 7 0
BBX 7 7 0 0
BITMAP
1A
6C
44
88
98
AA
4C
ENDCHAR
STARTCHAR b
ENCODING 98
SWIDTH 500 0
DWIDTH 7 0
BBX 6 10 0 0
BITMAP
30
10
20
28
74
44
44
88
D8
60
ENDCHAR
STARTCHAR c
ENCODING 99
SWIDTH 444 0
DWIDTH 6 0
BBX 6 7 0 0
BITMAP
1C
64
40
80
80
C8
70
ENDCHAR
STARTCHAR d
ENCODING 100
SWIDTH 500 0
DWIDTH 7 0
BBX 7 10 0 0
BITMAP
06
02
04
34
4C
88
88
90
B4
58
ENDCHAR
STARTCHAR e
ENCODING 101
SWIDTH 444 0
DWIDTH 7 0
BBX 6 7 0 0
BITMAP
18
64
4C
F0
80
C8
70
ENDCHAR
STARTCHAR f
ENCODING 102
SWIDTH 278 0
DWIDTH 5 0
BBX 8 13 -2 -3
BITMAP
03
05
04
1E
08
08
10
10
10
20
20
A0
C0
ENDCHAR
STARTCHAR g
ENCODING 103
SWIDTH 500 0
DWIDTH 6 0
BBX 7 10 -1 -3
BITMAP
1E
24
44
48
30
40
70
88
88
70
ENDCHAR
STARTCHAR h
ENCODING 104
SWIDTH 500 0
DWIDTH 7 0
BBX 6 10 0 0
BITMAP
30
10
10
2C
34
64
48
48
94
88
ENDCHAR
STARTCHAR i
ENCODING 105
SWIDTH 278 0
DWIDTH 4 0
BBX 4 10 0 0
BITMAP
10
00
00
60
20
40
40
80
A0
40
ENDCHAR
STARTCHAR j
ENCODING 106
SWIDTH 278 0
DWIDTH 4 0
BBX 6 13 -2 -3
BITMAP
04
00
00
18
08
08
10
10
10
20
20
A0
C0
ENDCHAR
STARTCHAR k
ENCODING 107
SWIDTH 444 0
DWIDTH 7 0
BBX 7 10 0 0
BITMAP
30
10
10
26
24
78
50
50
94
88
ENDCHAR
STARTCHAR l
ENCODING 108
SWIDTH 278 0
DWIDTH 4 0
BBX 4 10 0 0
BITMAP
30
10
20
20
40
40
40
80
A0
40
ENDCHAR
STARTCHAR m
ENCODING 109
SWIDTH 722 0
DWIDTH 10 0
BBX 9 7 0 0
BITMAP
ED80
3680
6480
4900
4900
9280
9100
ENDCHAR
STARTCHAR n
ENCODING 110
SWIDTH 500 0
DWIDTH 7 0
BBX 6 7 0 0
BITMAP
6C
34
64
48
48
94
88
ENDCHAR
STARTCHAR o
ENCODING 111
SWIDTH 500 0
DWIDTH 7 0
BBX 6 7 0 0
BITMAP
18
6C
44
84
88
D8
60
ENDCHAR
STARTCHAR p
ENCODING 112
SWIDTH 500 0
DWIDTH 7 0
BBX 8 10 -2 -3
BITMAP
36
19
11
11
22
26
38
40
40
E0
ENDCHAR
STARTCHAR q
ENCODING 113
SWIDTH 500 0
DWIDTH 7 0
BBX 7 10 0 -3
BITMAP
1A
24
44
48
88
90
70
10
20
70
ENDCHAR
STARTCHAR r
ENCODING 114
SWIDTH 389 0
DWIDTH 5 0
BBX 5 7 0 0
BITMAP
58
20
40
40
80
80
80
ENDCHAR
STARTCHAR s
ENCODING 115
SWIDTH 389 0
DWIDTH 6 0
BBX 5 7 0 0
BITMAP
38
48
40
20
10
90
E0
ENDCHAR
STARTCHAR t
ENCODING 116
SWIDTH 278 0
DWIDTH 5 0
BBX 5 9 0 0
BITMAP
10
10
78
20
40
40
80
A0
C0
ENDCHAR
STARTCHAR u
ENCODING 117
SWIDTH 500 0
DWIDTH 7 0
BBX 6 7 0 0
BITMAP
64
24
48
48
90
B4
D8
ENDCHAR
STARTCHAR v
ENCODING 118
SWIDTH 444 0
DWIDTH 6 0
BBX 6 7 0 0
BITMAP
CC
44
48
48
50
60
40
ENDCHAR
STARTCHAR w
ENCODING 119
SWIDTH 667 0
DWIDTH 9 0
BBX 9 7 0 0
BITMAP
C980
4900
4900
4A00
5A00
6C00
4800
ENDCHAR
STARTCHAR x
ENCODING 120
SWIDTH 444 0
DWIDTH 7 0
BBX 7 7 -1 0
BITMAP
66
24
18
10
28
4A
C4
ENDCHAR
STARTCHAR y
ENCODING 121
SWIDTH 444 0
DWIDTH 7 0
BBX 7 10 -1 -3
BITMAP
66
22
22
24
24
28
10
10
A0
C0
ENDCHAR
STARTCHAR z
ENCODING 122
SWIDTH 389 0
DWIDTH 6 0
BBX 6 7 0 0
BITMAP
7C
48
10
20
40
88
F8
ENDCHAR
STARTCHAR braceleft
ENCODING 123
SWIDTH 400 0
DWIDTH 6 0
BBX 6 13 0 -3
BITMAP
0C
10
10
20
20
20
C0
40
40
80
80
80
60
ENDCHAR
STARTCHAR bar
ENCODING 124
SWIDTH 275 0
DWIDTH 4 0
BBX 4 13 0 -3
BITMAP
10
10
10
20
20
20
40
40
40
40
80
80
80
ENDCHAR
STARTCHAR braceright
ENCODING 125
SWIDTH 400 0
DWIDTH 6 0
BBX 6 13 -1 -3
BITMAP
18
04
04
04
08
08
0C
10
10
10
20
20
C0
ENDCHAR
STARTCHAR asciitilde
ENCODING 126
SWIDTH 541 0
DWIDTH 8 0
BBX 6 2 1 3
BITMAP
64
98
ENDCHAR
STARTCHAR afii10051
ENCODING 128
SWIDTH 822 0
DWIDTH 12 0
BBX 8 13 2 -3
BITMAP
FE
92
10
2E
31
21
21
42
42
E2
04
08
30
ENDCHAR
STARTCHAR afii10052
ENCODING 129
SWIDTH 617 0
DWIDTH 9 0
BBX 9 14 0 0
BITMAP
0100
0300
0400
0000
3F80
1080
1000
2000
2000
2000
4000
4000
4000
E000
ENDCHAR
STARTCHAR quotesinglbase
ENCODING 130
SWIDTH 333 0
DWIDTH 5 0
BBX 2 3 0 -2
BITMAP
C0
40
80
ENDCHAR
STARTCHAR afii10100
ENCODING 131
SWIDTH 411 0
DWIDTH 6 0
BBX 6 11 0 0
BITMAP
04
0C
10
00
30
48
08
70
80
90
60
ENDCHAR
STARTCHAR quotedblbase
ENCODING 132
SWIDTH 556 0
DWIDTH 8 0
BBX 5 3 1 -2
BITMAP
D8
48
90
ENDCHAR
STARTCHAR ellipsis
ENCODING 133
SWIDTH 889 0
DWIDTH 13 0
BBX 11 2 0 0
BITMAP
8420
8420
ENDCHAR
STARTCHAR dagger
ENCODING 134
SWIDTH 500 0
DWIDTH 7 0
BBX 7 13 0 -2
BITMAP
04
04
08
7E
10
10
20
20
40
40
40
80
80
ENDCHAR
STARTCHAR daggerdbl
ENCODING 135
SWIDTH 500 0
DWIDTH 8 0
BBX 8 13 0 -2
BITMAP
02
02
04
3F
08
08
10
10
FC
20
20
40
40
ENDCHAR
STARTCHAR Euro
ENCODING 136
SWIDTH 685 0
DWIDTH 10 0
BBX 10 10 1 0
BITMAP
0F40
1880
2080
7C00
4000
F800
4000
4000
6200
3C00
ENDCHAR
STARTCHAR perthousand
ENCODING 137
SWIDTH 1000 0
DWIDTH 15 0
BBX 14 10 0 0
BITMAP
7100
9F00
9200
E400
0800
0800
139C
24A4
24A4
4738
ENDCHAR
STARTCHAR afii10058
ENCODING 138
SWIDTH 891 0
DWIDTH 13 0
BBX 12 10 0 0
BITMAP
0FC0
0480
0480
0900
09E0
0930
1210
1210
A220
C7C0
ENDCHAR
STARTCHAR guilsinglleft
ENCODING 139
SWIDTH 333 0
DWIDTH 5 0
BBX 3 5 1 1
BITMAP
20
40
80
80
40
ENDCHAR
STARTCHAR afii10059
ENCODING 140
SWIDTH 822 0
DWIDTH 12 0
BBX 11 10 0 0
BITMAP
3B80
1100
1100
2200
3FC0
2260
4420
4420
4440
EF80
ENDCHAR
STARTCHAR afii10061
ENCODING 141
SWIDTH 685 0
DWIDTH 10 0
BBX 10 14 0 0
BITMAP
0080
0180
0200
0000
39C0
1100
1200
2400
3800
2800
4400
4200
4100
E380
ENDCHAR
STARTCHAR afii10060
ENCODING 142
SWIDTH 822 0
DWIDTH 12 0
BBX 8 10 2 0
BITMAP
FE
92
10
2E
31
21
21
42
42
E7
ENDCHAR
STARTCHAR afii10145
ENCODING 143
SWIDTH 685 0
DWIDTH 10 0
BBX 10 12 0 -2
BITMAP
39C0
1080
1080
2100
2100
2100
4200
4200
4200
FF00
1000
1000
ENDCHAR
STARTCHAR afii10099
ENCODING 144
SWIDTH 480 0
DWIDTH 7 0
BBX 6 13 0 -3
BITMAP
30
10
78
2C
34
64
48
48
88
90
10
20
40
ENDCHAR
STARTCHAR quoteleft
ENCODING 145
SWIDTH 333 0
DWIDTH 5 0
BBX 2 3 2 7
BITMAP
40
80
C0
ENDCHAR
STARTCHAR quoteright
ENCODING 146
SWIDTH 333 0
DWIDTH 5 0
BBX 2 3 2 7
BITMAP
C0
40
80
ENDCHAR
STARTCHAR quotedblleft
ENCODING 147
SWIDTH 556 0
DWIDTH 8 0
BBX 5 3 2 7
BITMAP
48
90
D8
ENDCHAR
STARTCHAR quotedblright
ENCODING 148
SWIDTH 556 0
DWIDTH 8 0
BBX 5 3 2 7
BITMAP
D8
48
90
ENDCHAR
STARTCHAR bullet
ENCODING 149
SWIDTH 350 0
DWIDTH 5 0
BBX 4 4 0 2
BITMAP
60
F0
F0
60
ENDCHAR
STARTCHAR endash
ENCODING 150
SWIDTH 500 0
DWIDTH 7 0
BBX 8 1 0 3
BITMAP
FF
ENDCHAR
STARTCHAR emdash
ENCODING 151
SWIDTH 889 0
DWIDTH 13 0
BBX 15 1 -1 3
BITMAP
FFFE
ENDCHAR
STARTCHAR trademark
ENCODING 153
SWIDTH 980 0
DWIDTH 15 0
BBX 13 6 1 4
BITMAP
FB18
A9B0
21B0
2150
2150
7358
ENDCHAR
STARTCHAR afii10106
ENCODING 154
SWIDTH 685 0
DWIDTH 10 0
BBX 10 7 -1 0
BITMAP
0600
0A00
1580
1640
2440
A880
4700
ENDCHAR
STARTCHAR guilsinglright
ENCODING 155
SWIDTH 333 0
DWIDTH 5 0
BBX 3 5 1 1
BITMAP
40
20
20
40
80
ENDCHAR
STARTCHAR afii10107
ENCODING 156
SWIDTH 754 0
DWIDTH 11 0
BBX 10 7 0 0
BITMAP
6200
2200
4580
7E40
4840
8880
8700
ENDCHAR
STARTCHAR afii10109
ENCODING 157
SWIDTH 480 0
DWIDTH 7 0
BBX 7 11 0 0
BITMAP
02
06
08
00
66
24
38
50
50
94
88
ENDCHAR
STARTCHAR afii10108
ENCODING 158
SWIDTH 480 0
DWIDTH 7 0
BBX 6 10 0 0
BITMAP
30
10
78
2C
34
64
48
48
94
88
ENDCHAR
STARTCHAR afii10193
ENCODING 159
SWIDTH 480 0
DWIDTH 7 0
BBX 6 9 0 -2
BITMAP
64
24
48
48
90
B4
D8
40
40
ENDCHAR
STARTCHAR space
ENCODING 160
SWIDTH 250 0
DWIDTH 3 0
BBX 0 0 0 0
BITMAP
ENDCHAR
STARTCHAR afii10062
ENCODING 161
SWIDTH 617 0
DWIDTH 9 0
BBX 10 13 0 0
BITMAP
0880
0700
0000
71C0
2080
2100
2100
1200
1400
1400
8800
9000
6000
ENDCHAR
STARTCHAR afii10110
ENCODING 162
SWIDTH 480 0
DWIDTH 7 0
BBX 7 13 -1 -3
BITMAP
14
18
00
66
22
22
24
24
28
10
10
A0
C0
ENDCHAR
STARTCHAR afii10057
ENCODING 163
SWIDTH 444 0
DWIDTH 6 0
BBX 6 10 0 0
BITMAP
1C
08
08
10
10
10
20
20
A0
C0
ENDCHAR
STARTCHAR currency
ENCODING 164
SWIDTH 500 0
DWIDTH 7 0
BBX 5 6 1 2
BITMAP
88
70
88
88
70
88
ENDCHAR
STARTCHAR afii10050
ENCODING 165
SWIDTH 617 0
DWIDTH 9 0
BBX 10 12 0 0
BITMAP
0040
0040
3F80
1000
1000
2000
2000
2000
4000
4000
4000
E000
ENDCHAR
STARTCHAR brokenbar
ENCODING 166
SWIDTH 275 0
DWIDTH 4 0
BBX 4 13 0 -3
BITMAP
10
10
10
20
20
00
00
40
40
40
80
80
80
ENDCHAR
STARTCHAR section
ENCODING 167
SWIDTH 500 0
DWIDTH 7 0
BBX 7 13 0 -2
BITMAP
1C
36
26
30
68
4C
44
64
2C
18
C8
D8
70
ENDCHAR
STARTCHAR afii10023
ENCODING 168
SWIDTH 611 0
DWIDTH 9 0
BBX 9 13 0 0
BITMAP
0900
0900
0000
3F80
1080
1000
2200
3E00
2400
4000
4000
4100
FE00
ENDCHAR
STARTCHAR copyright
ENCODING 169
SWIDTH 760 0
DWIDTH 12 0
BBX 10 10 1 0
BITMAP
1E00
6180
4E80
9240
9040
9040
9240
4C80
6180
1E00
ENDCHAR
STARTCHAR afii10053
ENCODING 170
SWIDTH 617 0
DWIDTH 9 0
BBX 9 10 1 0
BITMAP
1E80
3100
4100
4000
F800
8000
8000
8000
C400
7800
ENDCHAR
STARTCHAR guillemotleft
ENCODING 171
SWIDTH 500 0
DWIDTH 7 0
BBX 5 5 1 1
BITMAP
28
50
A0
A0
50
ENDCHAR
STARTCHAR logicalnot
ENCODING 172
SWIDTH 675 0
DWIDTH 9 0
BBX 7 4 1 1
BITMAP
FE
02
02
02
ENDCHAR
STARTCHAR hyphen
ENCODING 173
SWIDTH 333 0
DWIDTH 5 0
BBX 3 1 1 3
BITMAP
E0
ENDCHAR
STARTCHAR registered
ENCODING 174
SWIDTH 760 0
DWIDTH 12 0
BBX 10 10 1 0
BITMAP
1E00
6180
5C80
9240
9C40
9440
9240
5280
6180
1E00
ENDCHAR
STARTCHAR afii10056
ENCODING 175
SWIDTH 333 0
DWIDTH 5 0
BBX 6 13 0 0
BITMAP
24
24
00
38
10
10
20
20
20
40
40
40
E0
ENDCHAR
STARTCHAR degree
ENCODING 176
SWIDTH 400 0
DWIDTH 6 0
BBX 4 4 1 6
BITMAP
60
90
90
60
ENDCHAR
STARTCHAR plusminus
ENCODING 177
SWIDTH 675 0
DWIDTH 10 0
BBX 7 9 1 0
BITMAP
10
10
10
FE
10
10
10
00
FE
ENDCHAR
STARTCHAR afii10055
ENCODING 178
SWIDTH 333 0
DWIDTH 5 0
BBX 5 10 0 0
BITMAP
38
10
10
20
20
20
40
40
40
E0
ENDCHAR
STARTCHAR afii10103
ENCODING 179
SWIDTH 278 0
DWIDTH 4 0
BBX 4 10 0 0
BITMAP
10
00
00
60
20
40
40
80
A0
40
ENDCHAR
STARTCHAR afii10098
ENCODING 180
SWIDTH 411 0
DWIDTH 6 0
BBX 7 8 0 0
BITMAP
02
7C
20
40
40
80
A0
C0
ENDCHAR
STARTCHAR mu
ENCODING 181
SWIDTH 500 0
DWIDTH 7 0
BBX 7 10 -1 -3
BITMAP
32
12
24
24
48
5A
6C
80
80
C0
ENDCHAR
STARTCHAR paragraph
ENCODING 182
SWIDTH 523 0
DWIDTH 8 0
BBX 8 13 0 -3
BITMAP
3F
7A
FA
F4
F4
74
28
28
28
28
50
50
50
ENDCHAR
STARTCHAR periodcentered
ENCODING 183
SWIDTH 250 0
DWIDTH 4 0
BBX 1 2 1 3
BITMAP
80
80
ENDCHAR
STARTCHAR afii10071
ENCODING 184
SWIDTH 444 0
DWIDTH 7 0
BBX 6 10 0 0
BITMAP
28
28
00
18
64
4C
F0
80
C8
70
ENDCHAR
STARTCHAR afii61352
ENCODING 185
SWIDTH 960 0
DWIDTH 14 0
BBX 13 10 -1 0
BITMAP
1830
0840
0840
1480
1498
12A8
2328
2130
2100
C170
ENDCHAR
STARTCHAR afii10101
ENCODING 186
SWIDTH 411 0
DWIDTH 6 0
BBX 6 7 0 0
BITMAP
1C
64
40
F0
80
C8
70
ENDCHAR
STARTCHAR guillemotright
ENCODING 187
SWIDTH 500 0
DWIDTH 7 0
BBX 5 5 1 1
BITMAP
50
28
28
50
A0
ENDCHAR
STARTCHAR afii10105
ENCODING 188
SWIDTH 278 0
DWIDTH 4 0
BBX 6 13 -2 -3
BITMAP
04
00
00
18
08
08
10
10
10
20
20
A0
C0
ENDCHAR
STARTCHAR afii10054
ENCODING 189
SWIDTH 500 0
DWIDTH 7 0
BBX 7 10 0 0
BITMAP
1A
26
22
20
10
08
04
84
C4
B8
ENDCHAR
STARTCHAR afii10102
ENCODING 190
SWIDTH 389 0
DWIDTH 6 0
BBX 5 7 0 0
BITMAP
38
48
40
20
10
90
E0
ENDCHAR
STARTCHAR afii10104
ENCODING 191
SWIDTH 278 0
DWIDTH 4 0
BBX 4 10 0 0
BITMAP
50
50
00
60
20
40
40
80
A0
C0
ENDCHAR
STARTCHAR afii10017
ENCODING 192
SWIDTH 617 0
DWIDTH 9 0
BBX 9 10 -1 0
BITMAP
0100
0300
0500
0900
0900
1100
3F00
2100
4100
E380
ENDCHAR
STARTCHAR afii10018
ENCODING 193
SWIDTH 548 0
DWIDTH 8 0
BBX 9 10 -1 0
BITMAP
3F80
1080
1000
2000
3E00
2300
4100
4100
4200
FC00
ENDCHAR
STARTCHAR afii10019
ENCODING 194
SWIDTH 548 0
DWIDTH 8 0
BBX 9 10 -1 0
BITMAP
3F00
1080
1080
2100
3E00
2300
4100
4100
4200
FC00
ENDCHAR
STARTCHAR afii10020
ENCODING 195
SWIDTH 617 0
DWIDTH 9 0
BBX 9 10 0 0
BITMAP
3F80
1080
1000
2000
2000
2000
4000
4000
4000
E000
ENDCHAR
STARTCHAR afii10021
ENCODING 196
SWIDTH 685 0
DWIDTH 10 0
BBX 11 12 -1 -2
BITMAP
0FE0
0440
0440
0880
0880
0880
1100
1100
2100
7F80
8100
8100
ENDCHAR
STARTCHAR afii10022
ENCODING 197
SWIDTH 617 0
DWIDTH 9 0
BBX 9 10 0 0
BITMAP
3F80
1080
1000
2200
3E00
2400
4000
4000
4100
FE00
ENDCHAR
STARTCHAR afii10024
ENCODING 198
SWIDTH 891 0
DWIDTH 13 0
BBX 14 10 -1 0
BITMAP
1DDC
0890
04A0
0540
0380
0780
0A40
1220
2210
E738
ENDCHAR
STARTCHAR afii10025
ENCODING 199
SWIDTH 548 0
DWIDTH 8 0
BBX 8 10 0 0
BITMAP
3E
21
01
02
1C
06
02
02
84
78
ENDCHAR
STARTCHAR afii10026
ENCODING 200
SWIDTH 754 0
DWIDTH 11 0
BBX 11 10 0 0
BITMAP
38E0
1040
10C0
2180
2680
2880
5100
6100
4100
E380
ENDCHAR
STARTCHAR afii10027
ENCODING 201
SWIDTH 754 0
DWIDTH 11 0
BBX 11 13 0 0
BITMAP
0440
0380
0000
38E0
1040
10C0
2180
2680
2880
5100
6100
4100
E380
ENDCHAR
STARTCHAR afii10028
ENCODING 202
SWIDTH 685 0
DWIDTH 10 0
BBX 10 10 0 0
BITMAP
39C0
1100
1200
2400
3800
2800
4400
4200
4100
E380
ENDCHAR
STARTCHAR afii10029
ENCODING 203
SWIDTH 754 0
DWIDTH 11 0
BBX 11 10 0 0
BITMAP
0FE0
0440
0440
0880
0880
0880
1100
1100
A100
C380
ENDCHAR
STARTCHAR afii10030
ENCODING 204
SWIDTH 822 0
DWIDTH 12 0
BBX 12 10 0 0
BITMAP
3070
1060
18A0
2940
2940
2A40
4A80
4C80
4880
E9C0
ENDCHAR
STARTCHAR afii10031
ENCODING 205
SWIDTH 685 0
DWIDTH 10 0
BBX 10 10 0 0
BITMAP
39C0
1080
1080
2100
3F00
2100
4200
4200
4200
E700
ENDCHAR
STARTCHAR afii10032
ENCODING 206
SWIDTH 685 0
DWIDTH 10 0
BBX 9 10 0 0
BITMAP
0E00
3100
6080
4080
C080
8180
8100
8300
4600
3800
ENDCHAR
STARTCHAR afii10033
ENCODING 207
SWIDTH 685 0
DWIDTH 10 0
BBX 10 10 0 0
BITMAP
3FC0
1080
1080
2100
2100
2100
4200
4200
4200
E700
ENDCHAR
STARTCHAR afii10034
ENCODING 208
SWIDTH 617 0
DWIDTH 9 0
BBX 9 10 0 0
BITMAP
3F00
1080
1080
2100
3E00
2000
4000
4000
4000
E000
ENDCHAR
STARTCHAR afii10035
ENCODING 209
SWIDTH 617 0
DWIDTH 9 0
BBX 9 10 1 0
BITMAP
1E80
3100
4100
4000
8000
8000
8000
8000
C400
7800
ENDCHAR
STARTCHAR afii10036
ENCODING 210
SWIDTH 548 0
DWIDTH 8 0
BBX 7 10 1 0
BITMAP
FE
92
10
20
20
20
40
40
40
E0
ENDCHAR
STARTCHAR afii10037
ENCODING 211
SWIDTH 617 0
DWIDTH 9 0
BBX 10 10 0 0
BITMAP
71C0
2080
2100
2100
1200
1400
1400
8800
9000
6000
ENDCHAR
STARTCHAR afii10038
ENCODING 212
SWIDTH 754 0
DWIDTH 11 0
BBX 9 10 1 0
BITMAP
0E00
0400
3F00
4980
8880
8880
9100
7E00
1000
3800
ENDCHAR
STARTCHAR afii10039
ENCODING 213
SWIDTH 617 0
DWIDTH 9 0
BBX 9 10 0 0
BITMAP
7380
2100
1200
1400
0800
0800
1400
2400
4200
E700
ENDCHAR
STARTCHAR afii10040
ENCODING 214
SWIDTH 685 0
DWIDTH 10 0
BBX 10 12 0 -2
BITMAP
39C0
1080
1080
2100
2100
2100
4200
4200
4200
FF00
0200
0200
ENDCHAR
STARTCHAR afii10041
ENCODING 215
SWIDTH 685 0
DWIDTH 10 0
BBX 8 10 2 0
BITMAP
E7
42
42
84
84
8C
74
08
08
1C
ENDCHAR
STARTCHAR afii10042
ENCODING 216
SWIDTH 891 0
DWIDTH 13 0
BBX 13 10 0 0
BITMAP
3BB8
1110
1110
2220
2220
2220
4440
4440
4440
FFE0
ENDCHAR
STARTCHAR afii10043
ENCODING 217
SWIDTH 891 0
DWIDTH 13 0
BBX 13 12 0 -2
BITMAP
3BB8
1110
1110
2220
2220
2220
4440
4440
4440
FFE0
0040
0040
ENDCHAR
STARTCHAR afii10044
ENCODING 218
SWIDTH 617 0
DWIDTH 9 0
BBX 8 10 0 0
BITMAP
78
50
90
20
3E
23
41
41
42
FC
ENDCHAR
STARTCHAR afii10045
ENCODING 219
SWIDTH 891 0
DWIDTH 13 0
BBX 14 10 -1 0
BITMAP
381C
1008
1008
2010
3E10
2310
4120
4120
4220
FC70
ENDCHAR
STARTCHAR afii10046
ENCODING 220
SWIDTH 548 0
DWIDTH 8 0
BBX 8 10 -1 0
BITMAP
38
10
10
20
3E
23
41
41
42
FC
ENDCHAR
STARTCHAR afii10047
ENCODING 221
SWIDTH 685 0
DWIDTH 10 0
BBX 8 10 1 0
BITMAP
2E
33
21
01
0F
01
02
02
8C
78
ENDCHAR
STARTCHAR afii10048
ENCODING 222
SWIDTH 1028 0
DWIDTH 15 0
BBX 14 10 0 0
BITMAP
3870
1188
1304
2204
3E04
240C
4408
4418
4230
E1C0
ENDCHAR
STARTCHAR afii10049
ENCODING 223
SWIDTH 685 0
DWIDTH 10 0
BBX 10 10 0 0
BITMAP
0FC0
1880
1080
1100
0F00
0900
1200
2200
4200
C700
ENDCHAR
STARTCHAR afii10065
ENCODING 224
SWIDTH 480 0
DWIDTH 7 0
BBX 7 7 0 0
BITMAP
1A
6C
44
88
98
AA
4C
ENDCHAR
STARTCHAR afii10066
ENCODING 225
SWIDTH 480 0
DWIDTH 7 0
BBX 8 10 0 0
BITMAP
01
0E
10
28
74
44
84
88
D8
60
ENDCHAR
STARTCHAR afii10067
ENCODING 226
SWIDTH 480 0
DWIDTH 7 0
BBX 6 7 0 0
BITMAP
18
64
4C
F0
88
88
70
ENDCHAR
STARTCHAR afii10068
ENCODING 227
SWIDTH 411 0
DWIDTH 6 0
BBX 5 7 0 0
BITMAP
30
48
08
70
80
90
60
ENDCHAR
STARTCHAR afii10069
ENCODING 228
SWIDTH 480 0
DWIDTH 7 0
BBX 6 10 0 0
BITMAP
30
08
04
14
6C
44
84
88
D8
60
ENDCHAR
STARTCHAR afii10070
ENCODING 229
SWIDTH 480 0
DWIDTH 7 0
BBX 6 7 0 0
BITMAP
18
64
4C
F0
80
C8
70
ENDCHAR
STARTCHAR afii10072
ENCODING 230
SWIDTH 754 0
DWIDTH 11 0
BBX 11 7 0 0
BITMAP
3260
2AA0
0F00
0D00
1500
A940
4880
ENDCHAR
STARTCHAR afii10073
ENCODING 231
SWIDTH 480 0
DWIDTH 7 0
BBX 6 7 0 0
BITMAP
38
24
04
38
08
88
70
ENDCHAR
STARTCHAR afii10074
ENCODING 232
SWIDTH 480 0
DWIDTH 7 0
BBX 6 7 0 0
BITMAP
64
24
48
48
90
B4
D8
ENDCHAR
STARTCHAR afii10075
ENCODING 233
SWIDTH 480 0
DWIDTH 7 0
BBX 6 10 0 0
BITMAP
14
18
00
64
24
48
48
90
B4
D8
ENDCHAR
STARTCHAR afii10076
ENCODING 234
SWIDTH 480 0
DWIDTH 7 0
BBX 7 7 0 0
BITMAP
66
24
38
50
50
94
88
ENDCHAR
STARTCHAR afii10077
ENCODING 235
SWIDTH 480 0
DWIDTH 7 0
BBX 7 7 -1 0
BITMAP
06
0A
12
14
24
AA
44
ENDCHAR
STARTCHAR afii10078
ENCODING 236
SWIDTH 754 0
DWIDTH 11 0
BBX 11 7 -1 0
BITMAP
0420
0C60
0CA0
1540
1540
A6A0
4440
ENDCHAR
STARTCHAR afii10079
ENCODING 237
SWIDTH 548 0
DWIDTH 8 0
BBX 7 7 0 0
BITMAP
62
22
44
7C
48
8A
84
ENDCHAR
STARTCHAR afii10080
ENCODING 238
SWIDTH 480 0
DWIDTH 7 0
BBX 6 7 0 0
BITMAP
18
6C
44
84
88
D8
60
ENDCHAR
STARTCHAR afii10081
ENCODING 239
SWIDTH 480 0
DWIDTH 7 0
BBX 6 7 0 0
BITMAP
6C
34
64
48
48
94
88
ENDCHAR
STARTCHAR afii10082
ENCODING 240
SWIDTH 480 0
DWIDTH 7 0
BBX 8 10 -2 -3
BITMAP
36
19
11
11
22
26
38
40
40
E0
ENDCHAR
STARTCHAR afii10083
ENCODING 241
SWIDTH 411 0
DWIDTH 6 0
BBX 6 7 0 0
BITMAP
1C
64
40
80
80
C8
70
ENDCHAR
STARTCHAR afii10084
ENCODING 242
SWIDTH 685 0
DWIDTH 10 0
BBX 9 7 0 0
BITMAP
ED80
3680
6480
4900
4900
9280
9100
ENDCHAR
STARTCHAR afii10085
ENCODING 243
SWIDTH 480 0
DWIDTH 7 0
BBX 7 10 -1 -3
BITMAP
66
22
22
24
24
28
10
10
A0
C0
ENDCHAR
STARTCHAR afii10086
ENCODING 244
SWIDTH 685 0
DWIDTH 10 0
BBX 9 13 0 -3
BITMAP
0180
0200
0400
1F00
2480
4880
4880
8900
9300
7C00
2000
2000
C000
ENDCHAR
STARTCHAR afii10087
ENCODING 245
SWIDTH 480 0
DWIDTH 7 0
BBX 7 7 -1 0
BITMAP
66
24
18
10
28
4A
C4
ENDCHAR
STARTCHAR afii10088
ENCODING 246
SWIDTH 480 0
DWIDTH 7 0
BBX 6 9 0 -2
BITMAP
64
24
48
48
90
B4
D8
10
10
ENDCHAR
STARTCHAR afii10089
ENCODING 247
SWIDTH 480 0
DWIDTH 7 0
BBX 5 7 1 0
BITMAP
C8
48
90
B0
60
28
30
ENDCHAR
STARTCHAR afii10090
ENCODING 248
SWIDTH 685 0
DWIDTH 10 0
BBX 9 7 0 0
BITMAP
E480
2480
4900
4900
9200
B680
DB00
ENDCHAR
STARTCHAR afii10091
ENCODING 249
SWIDTH 685 0
DWIDTH 10 0
BBX 9 9 0 -2
BITMAP
E480
2480
4900
4900
9200
B680
DB00
0200
0200
ENDCHAR
STARTCHAR afii10092
ENCODING 250
SWIDTH 548 0
DWIDTH 8 0
BBX 7 7 0 0
BITMAP
F0
90
2C
32
42
44
38
ENDCHAR
STARTCHAR afii10093
ENCODING 251
SWIDTH 754 0
DWIDTH 11 0
BBX 10 7 0 0
BITMAP
6040
2040
5880
6480
8500
8940
7180
ENDCHAR
STARTCHAR afii10094
ENCODING 252
SWIDTH 480 0
DWIDTH 7 0
BBX 6 7 0 0
BITMAP
60
20
58
64
84
88
70
ENDCHAR
STARTCHAR afii10095
ENCODING 253
SWIDTH 480 0
DWIDTH 7 0
BBX 6 7 0 0
BITMAP
78
4C
04
3C
08
98
60
ENDCHAR
STARTCHAR afii10096
ENCODING 254
SWIDTH 685 0
DWIDTH 10 0
BBX 9 7 0 0
BITMAP
6300
2D80
4880
7080
9100
9B00
8C00
ENDCHAR
STARTCHAR afii10097
ENCODING 255
SWIDTH 548 0
DWIDTH 8 0
BBX 7 7 0 0
BITMAP
1E
22
22
1C
24
AA
44
ENDCHAR
STARTCHAR Lslash
ENCODING -1
SWIDTH 556 0
DWIDTH 8 0
BBX 7 10 0 0
BITMAP
38
10
14
38
30
60
A0
40
42
FC
ENDCHAR
STARTCHAR OE
ENCODING -1
SWIDTH 944 0
DWIDTH 14 0
BBX 14 10 0 0
BITMAP
0EFC
3184
6100
4110
C1F0
8220
8200
8200
4608
3BF0
ENDCHAR
STARTCHAR Scaron
ENCODING -1
SWIDTH 500 0
DWIDTH 7 0
BBX 7 14 0 0
BITMAP
12
0C
08
00
1A
26
22
20
10
08
04
84
C4
B8
ENDCHAR
STARTCHAR Ydieresis
ENCODING -1
SWIDTH 556 0
DWIDTH 8 0
BBX 9 13 0 0
BITMAP
1200
1200
0000
E380
4100
2200
1400
1800
1000
1000
2000
2000
7000
ENDCHAR
STARTCHAR Zcaron
ENCODING -1
SWIDTH 556 0
DWIDTH 8 0
BBX 8 14 0 0
BITMAP
12
0C
08
00
7F
41
02
04
08
10
20
40
82
FE
ENDCHAR
STARTCHAR breve
ENCODING -1
SWIDTH 333 0
DWIDTH 5 0
BBX 4 2 1 8
BITMAP
90
E0
ENDCHAR
STARTCHAR caron
ENCODING -1
SWIDTH 333 0
DWIDTH 5 0
BBX 4 3 1 8
BITMAP
90
60
40
ENDCHAR
STARTCHAR circumflex
ENCODING -1
SWIDTH 333 0
DWIDTH 5 0
BBX 4 3 1 8
BITMAP
20
60
90
ENDCHAR
STARTCHAR dotaccent
ENCODING -1
SWIDTH 333 0
DWIDTH 4 0
BBX 1 2 2 8
BITMAP
80
80
ENDCHAR
STARTCHAR dotlessi
ENCODING -1
SWIDTH 278 0
DWIDTH 4 0
BBX 3 7 0 0
BITMAP
60
20
40
40
80
A0
40
ENDCHAR
STARTCHAR fi
ENCODING -1
SWIDTH 500 0
DWIDTH 8 0
BBX 9 13 -2 -3
BITMAP
0380
0480
0400
1F80
0880
0900
1100
1200
1280
2300
2000
A000
C000
ENDCHAR
STARTCHAR fl
ENCODING -1
SWIDTH 500 0
DWIDTH 8 0
BBX 10 13 -2 -3
BITMAP
03C0
0440
0480
1F80
0900
0900
1100
1200
1280
2100
2000
A000
C000
ENDCHAR
STARTCHAR florin
ENCODING -1
SWIDTH 500 0
DWIDTH 7 0
BBX 7 13 -1 -3
BITMAP
06
0A
08
08
3C
10
10
10
30
20
20
A0
C0
ENDCHAR
STARTCHAR fraction
ENCODING -1
SWIDTH 167 0
DWIDTH 3 0
BBX 7 10 -2 0
BITMAP
02
04
04
08
10
10
20
40
40
80
ENDCHAR
STARTCHAR hungarumlaut
ENCODING -1
SWIDTH 333 0
DWIDTH 5 0
BBX 5 3 1 8
BITMAP
28
50
A0
ENDCHAR
STARTCHAR lslash
ENCODING -1
SWIDTH 278 0
DWIDTH 4 0
BBX 4 10 0 0
BITMAP
30
10
20
30
60
C0
40
80
A0
40
ENDCHAR
STARTCHAR oe
ENCODING -1
SWIDTH 667 0
DWIDTH 10 0
BBX 10 7 0 0
BITMAP
1980
6E40
44C0
8700
8800
DC80
6700
ENDCHAR
STARTCHAR ogonek
ENCODING -1
SWIDTH 333 0
DWIDTH 4 0
BBX 4 3 -1 -3
BITMAP
40
90
60
ENDCHAR
STARTCHAR ring
ENCODING -1
SWIDTH 333 0
DWIDTH 5 0
BBX 4 3 1 8
BITMAP
60
90
60
ENDCHAR
STARTCHAR scaron
ENCODING -1
SWIDTH 389 0
DWIDTH 6 0
BBX 6 11 0 0
BITMAP
24
18
10
00
38
48
40
20
10
90
E0
ENDCHAR
STARTCHAR tilde
ENCODING -1
SWIDTH 333 0
DWIDTH 5 0
BBX 5 2 1 8
BITMAP
68
B0
ENDCHAR
STARTCHAR zcaron
ENCODING -1
SWIDTH 389 0
DWIDTH 6 0
BBX 6 11 0 0
BITMAP
24
18
10
00
7C
48
10
20
40
88
F8
ENDCHAR
ENDFONT
